<?xml version="1.0" encoding="utf-8" ?><svg xmlns="http://www.w3.org/2000/svg" xmlns:xlink="http://www.w3.org/1999/xlink" width="1024" height="1024" viewBox="0 0 1024 1024" xmlns:c2pa="http://c2pa.org/manifest"><metadata><c2pa:manifest>AAAgRWp1bWIAAAAeanVtZGMycGEAEQAQgAAAqgA4m3EDYzJwYQAAAAxBanVtYgAAAEdqdW1kYzJtYQARABCAAACqADibcQN1cm46YzJwYTo2ZTY5Y2M3Yi0zYmNlLTQzYzctODQ1Ni1hODI5ZDk2YTVhYjcAAAAB4mp1bWIAAAApanVtZGMyYXMAEQAQgAAAqgA4m3EDYzJwYS5hc3NlcnRpb25zAAAAAO1qdW1iAAAAQWp1bWRjYm9yABEAEIAAAKoAOJtxE2MycGEuYWN0aW9ucy52MgAAAAAYYzJzaJ8Eu3Fl1VBJ9f1lY/gXNbgAAACkY2JvcqFnYWN0aW9uc4GjZmFjdGlvbmxjMnBhLmNyZWF0ZWRxZGlnaXRhbFNvdXJjZVR5cGV4Rmh0dHA6Ly9jdi5pcHRjLm9yZy9uZXdzY29kZXMvZGlnaXRhbHNvdXJjZXR5cGUvdHJhaW5lZEFsZ29yaXRobWljTWVkaWFrZGVzY3JpcHRpb252Q3JlYXRlZCBieSBSZWNyYWZ0IEFJLgAAAMRqdW1iAAAAQGp1bWRjYm9yABEAEIAAAKoAOJtxE2MycGEuaGFzaC5kYXRhAAAAABhjMnNoRr09KTFEXXEEAoR5XheGHQAAAHxjYm9ypWpleGNsdXNpb25zgaJlc3RhcnQY22ZsZW5ndGgZEIxkbmFtZW5qdW1iZiBtYW5pZmVzdGNhbGdmc2hhMjU2ZGhhc2hYIMFQ8VxiMEifEHAJEAz1avVAPL43p2byM7mIOdUjN+0MY3BhZEkAAAAAAAAAAAAAAAI0anVtYgAAACdqdW1kYzJjbAARABCAAACqADibcQNjMnBhLmNsYWltLnYyAAAAAgVjYm9ypmppbnN0YW5jZUlEeCx4bXA6aWlkOjI1NTVkOTE3LWI3YmItNDZjMC1hMjgzLTQ1MzA5YjlmYzVkOXRjbGFpbV9nZW5lcmF0b3JfaW5mb6NkbmFtZWpyZWNyYWZ0LmFpZ3ZlcnNpb254KDgxY2U4MmUyYzVjM2NiZmJlOGM2ZmJlMTc5ZDVmOGQ5MWM0MDljZTF3b3JnLmNvbnRlbnRhdXRoLmMycGFfcnNmMC45MC43aXNpZ25hdHVyZXhNc2VsZiNqdW1iZj0vYzJwYS91cm46YzJwYTo2ZTY5Y2M3Yi0zYmNlLTQzYzctODQ1Ni1hODI5ZDk2YTVhYjcvYzJwYS5zaWduYXR1cmVyY3JlYXRlZF9hc3NlcnRpb25zgqJjdXJseCpzZWxmI2p1bWJmPWMycGEuYXNzZXJ0aW9ucy9jMnBhLmFjdGlvbnMudjJkaGFzaFggSbx7xqJn8iGB7OG9WBwB6XNHOgkCvPFmojiOkJRfq+KiY3VybHgpc2VsZiNqdW1iZj1jMnBhLmFzc2VydGlvbnMvYzJwYS5oYXNoLmRhdGFkaGFzaFggWaIvhhq7gasP+8EEYrHY8IC1Wrs5c+12Xgx54Limr5FoZGM6dGl0bGV4GlJlY3JhZnQgQUkgR2VuZXJhdGVkIEltYWdlY2FsZ2ZzaGEyNTYAAAfcanVtYgAAAChqdW1kYzJjcwARABCAAACqADibcQNjMnBhLnNpZ25hdHVyZQAAAAesY2JvctKEWQOwogEmGCGCWQHnMIIB4zCCAYmgAwIBAgIJALfeWmNDUW56MAoGCCqGSM49BAMCMEAxHzAdBgNVBAMMFlJlY3JhZnQgU3RhZ2luZyBEZXYgQ0ExEDAOBgNVBAoMB1JlY3JhZnQxCzAJBgNVBAYTAlVTMB4XDTI2MDYxMjE5NDM1MFoXDTI3MDYxMjE5NDM1MFowNzELMAkGA1UEBhMCVVMxEzARBgNVBAoTClJlY3JhZnQgQUkxEzARBgNVBAMTCnJlY3JhZnQuYWkwWTATBgcqhkjOPQIBBggqhkjOPQMBBwNCAARKaTVbACsg/DeG3LeOxYdID/VA6EFG73E6Oknb+KIiCFJygRUz4ueN2z/t2qYb6CIUvS8RvgOiiClfoqsYtw81o3UwczAMBgNVHRMBAf8EAjAAMA4GA1UdDwEB/wQEAwIGwDATBgNVHSUEDDAKBggrBgEFBQcDBDAdBgNVHQ4EFgQULzHpBen96SL1y4IPHa8MkMshXf0wHwYDVR0jBBgwFoAUAgsqOBrKqpdK//m/kxZo7ZR4ebcwCgYIKoZIzj0EAwIDSAAwRQIgU8hKW0aXvvk8SQgVFNkax69Ym9ae8GsT2RZTQw+B51ACIQC0D4BkEoRD4N0r2ZRkNy0HZaW3WICy/QZGN95ilF4yzFkBvTCCAbkwggFfoAMCAQICCQCc+Wg7T6ATbzAKBggqhkjOPQQDAjBAMR8wHQYDVQQDDBZSZWNyYWZ0IFN0YWdpbmcgRGV2IENBMRAwDgYDVQQKDAdSZWNyYWZ0MQswCQYDVQQGEwJVUzAeFw0yNjA2MTIxOTQwMTZaFw0yODA2MTExOTQwMTZaMEAxHzAdBgNVBAMMFlJlY3JhZnQgU3RhZ2luZyBEZXYgQ0ExEDAOBgNVBAoMB1JlY3JhZnQxCzAJBgNVBAYTAlVTMFkwEwYHKoZIzj0CAQYIKoZIzj0DAQcDQgAEQ9IQBlcVbKaKPYrQSfOhL/00s7xUDC7RinIuLO/I1k99y9yh6oWF9kPxaP+tx1v1PeOL3yrVquJ730H0ZGiDyqNCMEAwDwYDVR0TAQH/BAUwAwEB/zAOBgNVHQ8BAf8EBAMCAYYwHQYDVR0OBBYEFAILKjgayqqXSv/5v5MWaO2UeHm3MAoGCCqGSM49BAMCA0gAMEUCIFQwNImLlYDeQhjgF+ZiqTbgcuzSqmOJw3Q2lQ/hu83FAiEA9O8cLm/xfoVLqB4jtdbuHzi3WL+p2RN+DRGkwpYswVuhY3BhZFkDpAAAAAAAAAAAAAAAAAAAAAAAAAAAAAAAAAAAAAAAAAAAAAAAAAAAAAAAAAAAAAAAAAAAAAAAAAAAAAAAAAAAAAAAAAAAAAAAAAAAAAAAAAAAAAAAAAAAAAAAAAAAAAAAAAAAAAAAAAAAAAAAAAAAAAAAAAAAAAAAAAAAAAAAAAAAAAAAAAAAAAAAAAAAAAAAAAAAAAAAAAAAAAAAAAAAAAAAAAAAAAAAAAAAAAAAAAAAAAAAAAAAAAAAAAAAAAAAAAAAAAAAAAAAAAAAAAAAAAAAAAAAAAAAAAAAAAAAAAAAAAAAAAAAAAAAAAAAAAAAAAAAAAAAAAAAAAAAAAAAAAAAAAAAAAAAAAAAAAAAAAAAAAAAAAAAAAAAAAAAAAAAAAAAAAAAAAAAAAAAAAAAAAAAAAAAAAAAAAAAAAAAAAAAAAAAAAAAAAAAAAAAAAAAAAAAAAAAAAAAAAAAAAAAAAAAAAAAAAAAAAAAAAAAAAAAAAAAAAAAAAAAAAAAAAAAAAAAAAAAAAAAAAAAAAAAAAAAAAAAAAAAAAAAAAAAAAAAAAAAAAAAAAAAAAAAAAAAAAAAAAAAAAAAAAAAAAAAAAAAAAAAAAAAAAAAAAAAAAAAAAAAAAAAAAAAAAAAAAAAAAAAAAAAAAAAAAAAAAAAAAAAAAAAAAAAAAAAAAAAAAAAAAAAAAAAAAAAAAAAAAAAAAAAAAAAAAAAAAAAAAAAAAAAAAAAAAAAAAAAAAAAAAAAAAAAAAAAAAAAAAAAAAAAAAAAAAAAAAAAAAAAAAAAAAAAAAAAAAAAAAAAAAAAAAAAAAAAAAAAAAAAAAAAAAAAAAAAAAAAAAAAAAAAAAAAAAAAAAAAAAAAAAAAAAAAAAAAAAAAAAAAAAAAAAAAAAAAAAAAAAAAAAAAAAAAAAAAAAAAAAAAAAAAAAAAAAAAAAAAAAAAAAAAAAAAAAAAAAAAAAAAAAAAAAAAAAAAAAAAAAAAAAAAAAAAAAAAAAAAAAAAAAAAAAAAAAAAAAAAAAAAAAAAAAAAAAAAAAAAAAAAAAAAAAAAAAAAAAAAAAAAAAAAAAAAAAAAAAAAAAAAAAAAAAAAAAAAAAAAAAAAAAAAAAAAAAAAAAAAAAAAAAAAAAAAAAAAAAAAAAAAAAAAAAAAAAAAAAAAAAAAAAAAAAAAAAAAAAAAAAAAAAAAAAAAAAAAAAAAAAAAAAAAAAAAAAAAAAAAAAAAAAAAAAAAAAAAAAAAAAAA9lhAIseTf2jeYClVvRt3hrhYCvdIiJpQlDYuHUiYFHIB7LytbmGbrMTjtZVuBFxfs89aGLN3+zbtsl9OjwRCVl+LwwAAE95qdW1iAAAAR2p1bWRjMm1hABEAEIAAAKoAOJtxA3VybjpjMnBhOmIyZTRhMmJkLWNmMjUtNDRiZC1hMGQ4LWY3YzI0ZDI0MDFiYQAAAAkdanVtYgAAAClqdW1kYzJhcwARABCAAACqADibcQNjMnBhLmFzc2VydGlvbnMAAAAGOmp1bWIAAABEanVtZGNib3IAEQAQgAAAqgA4m3ETYzJwYS5pbmdyZWRpZW50LnYzAAAAABhjMnNoIC9pENXkVP53V2Q5y6OWPQAABe5jYm9yp2xyZWxhdGlvbnNoaXBocGFyZW50T2ZoZGM6dGl0bGVmc291cmNlaWRjOmZvcm1hdG1pbWFnZS9zdmcreG1scXZhbGlkYXRpb25SZXN1bHRzoW5hY3RpdmVNYW5pZmVzdKNnc3VjY2Vzc4WjZGNvZGV4HWNsYWltU2lnbmF0dXJlLmluc2lkZVZhbGlkaXR5Y3VybHhNc2VsZiNqdW1iZj0vYzJwYS91cm46YzJwYTo2ZTY5Y2M3Yi0zYmNlLTQzYzctODQ1Ni1hODI5ZDk2YTVhYjcvYzJwYS5zaWduYXR1cmVrZXhwbGFuYXRpb251Y2xhaW0gc2lnbmF0dXJlIHZhbGlko2Rjb2RleBhjbGFpbVNpZ25hdHVyZS52YWxpZGF0ZWRjdXJseE1zZWxmI2p1bWJmPS9jMnBhL3VybjpjMnBhOjZlNjljYzdiLTNiY2UtNDNjNy04NDU2LWE4MjlkOTZhNWFiNy9jMnBhLnNpZ25hdHVyZWtleHBsYW5hdGlvbnVjbGFpbSBzaWduYXR1cmUgdmFsaWSjZGNvZGV4GWFzc2VydGlvbi5oYXNoZWRVUkkubWF0Y2hjdXJseF5zZWxmI2p1bWJmPS9jMnBhL3VybjpjMnBhOjZlNjljYzdiLTNiY2UtNDNjNy04NDU2LWE4MjlkOTZhNWFiNy9jMnBhLmFzc2VydGlvbnMvYzJwYS5hY3Rpb25zLnYya2V4cGxhbmF0aW9ueD5oYXNoZWQgdXJpIG1hdGNoZWQ6IHNlbGYjanVtYmY9YzJwYS5hc3NlcnRpb25zL2MycGEuYWN0aW9ucy52MqNkY29kZXgZYXNzZXJ0aW9uLmhhc2hlZFVSSS5tYXRjaGN1cmx4XXNlbGYjanVtYmY9L2MycGEvdXJuOmMycGE6NmU2OWNjN2ItM2JjZS00M2M3LTg0NTYtYTgyOWQ5NmE1YWI3L2MycGEuYXNzZXJ0aW9ucy9jMnBhLmhhc2guZGF0YWtleHBsYW5hdGlvbng9aGFzaGVkIHVyaSBtYXRjaGVkOiBzZWxmI2p1bWJmPWMycGEuYXNzZXJ0aW9ucy9jMnBhLmhhc2guZGF0YaNkY29kZXgYYXNzZXJ0aW9uLmRhdGFIYXNoLm1hdGNoY3VybHhdc2VsZiNqdW1iZj0vYzJwYS91cm46YzJwYTo2ZTY5Y2M3Yi0zYmNlLTQzYzctODQ1Ni1hODI5ZDk2YTVhYjcvYzJwYS5hc3NlcnRpb25zL2MycGEuaGFzaC5kYXRha2V4cGxhbmF0aW9ub2RhdGEgaGFzaCB2YWxpZG1pbmZvcm1hdGlvbmFsgGdmYWlsdXJlgaNkY29kZXgbc2lnbmluZ0NyZWRlbnRpYWwudW50cnVzdGVkY3VybHhNc2VsZiNqdW1iZj0vYzJwYS91cm46YzJwYTo2ZTY5Y2M3Yi0zYmNlLTQzYzctODQ1Ni1hODI5ZDk2YTVhYjcvYzJwYS5zaWduYXR1cmVrZXhwbGFuYXRpb254HXNpZ25pbmcgY2VydGlmaWNhdGUgdW50cnVzdGVkamluc3RhbmNlSUR4LHhtcDppaWQ6Mzk1MGY2NGYtMGZlZC00MThiLWI5Y2ItZTVjODI4ZDkzNzM4bmFjdGl2ZU1hbmlmZXN0o2N1cmx4PnNlbGYjanVtYmY9L2MycGEvdXJuOmMycGE6NmU2OWNjN2ItM2JjZS00M2M3LTg0NTYtYTgyOWQ5NmE1YWI3Y2FsZ2ZzaGEyNTZkaGFzaFggvCDd+3m6mayZa4YyF3aXR59nvt0ADkJYYJWL/UJKOepuY2xhaW1TaWduYXR1cmWjY3VybHhNc2VsZiNqdW1iZj0vYzJwYS91cm46YzJwYTo2ZTY5Y2M3Yi0zYmNlLTQzYzctODQ1Ni1hODI5ZDk2YTVhYjcvYzJwYS5zaWduYXR1cmVjYWxnZnNoYTI1NmRoYXNoWCCQ2SUjB23ESWk9yDJRYEU5KtGgAWNvsr/a4gcr4A5m2QAAAe5qdW1iAAAAQWp1bWRjYm9yABEAEIAAAKoAOJtxE2MycGEuYWN0aW9ucy52MgAAAAAYYzJzaDyQJE46qmCIe5YVClgUQzIAAAGlY2JvcqFnYWN0aW9uc4KiZmFjdGlvbmtjMnBhLm9wZW5lZGpwYXJhbWV0ZXJzoWtpbmdyZWRpZW50c4GiY3VybHgtc2VsZiNqdW1iZj1jMnBhLmFzc2VydGlvbnMvYzJwYS5pbmdyZWRpZW50LnYzZGhhc2hYILOivP+yeun+3Ck0ugHilZouYV0KNC/B8dA6WwWwjjqZpGZhY3Rpb25sYzJwYS5jcmVhdGVkanBhcmFtZXRlcnOha2luZ3JlZGllbnRzgaJjdXJseC1zZWxmI2p1bWJmPWMycGEuYXNzZXJ0aW9ucy9jMnBhLmluZ3JlZGllbnQudjNkaGFzaFggs6K8/7J66f7cKTS6AeKVmi5hXQo0L8Hx0DpbBbCOOplxZGlnaXRhbFNvdXJjZVR5cGV4QWh0dHA6Ly9jdi5pcHRjLm9yZy9uZXdzY29kZXMvZGlnaXRhbHNvdXJjZXR5cGUvY29tcG9zaXRlU3ludGhldGlja2Rlc2NyaXB0aW9ueB9Db21wb3NlZCBpbiB0aGUgUmVjcmFmdCBlZGl0b3IuAAAAxGp1bWIAAABAanVtZGNib3IAEQAQgAAAqgA4m3ETYzJwYS5oYXNoLmRhdGEAAAAAGGMyc2hKPrsHYAu/3zYO4uotOFZwAAAAfGNib3KlamV4Y2x1c2lvbnOBomVzdGFydBjsZmxlbmd0aBkrCGRuYW1lbmp1bWJmIG1hbmlmZXN0Y2FsZ2ZzaGEyNTZkaGFzaFggrJCYfJyHk8IHjPEg65WXlYrcM3YFY9EgphGmAHHk7cVjcGFkSQAAAAAAAAAAAAAAApZqdW1iAAAAJ2p1bWRjMmNsABEAEIAAAKoAOJtxA2MycGEuY2xhaW0udjIAAAACZ2Nib3Knamluc3RhbmNlSUR4LHhtcDppaWQ6YWUwMmZmNDAtMWMxZS00OTk3LTk4OTItMTA1Y2MyZGI3YjE3dGNsYWltX2dlbmVyYXRvcl9pbmZvo2RuYW1lanJlY3JhZnQuYWlndmVyc2lvbngoODFjZTgyZTJjNWMzY2JmYmU4YzZmYmUxNzlkNWY4ZDkxYzQwOWNlMXdvcmcuY29udGVudGF1dGguYzJwYV9yc2YwLjkwLjdpc2lnbmF0dXJleE1zZWxmI2p1bWJmPS9jMnBhL3VybjpjMnBhOmIyZTRhMmJkLWNmMjUtNDRiZC1hMGQ4LWY3YzI0ZDI0MDFiYS9jMnBhLnNpZ25hdHVyZXJjcmVhdGVkX2Fzc2VydGlvbnOComN1cmx4KnNlbGYjanVtYmY9YzJwYS5hc3NlcnRpb25zL2MycGEuYWN0aW9ucy52MmRoYXNoWCDM6WIrAcAdHYhPkBoqaSwPpukA07lzubvYi55l7ZU/vKJjdXJseClzZWxmI2p1bWJmPWMycGEuYXNzZXJ0aW9ucy9jMnBhLmhhc2guZGF0YWRoYXNoWCCpQRlbgO8io0IWas3ke99LRiMcCwGQNw9sVnq0FLNK0nNnYXRoZXJlZF9hc3NlcnRpb25zgaJjdXJseC1zZWxmI2p1bWJmPWMycGEuYXNzZXJ0aW9ucy9jMnBhLmluZ3JlZGllbnQudjNkaGFzaFggs6K8/7J66f7cKTS6AeKVmi5hXQo0L8Hx0DpbBbCOOploZGM6dGl0bGVtUmVjcmFmdCBJbWFnZWNhbGdmc2hhMjU2AAAH3Gp1bWIAAAAoanVtZGMyY3MAEQAQgAAAqgA4m3EDYzJwYS5zaWduYXR1cmUAAAAHrGNib3LShFkDsKIBJhghglkB5zCCAeMwggGJoAMCAQICCQC33lpjQ1FuejAKBggqhkjOPQQDAjBAMR8wHQYDVQQDDBZSZWNyYWZ0IFN0YWdpbmcgRGV2IENBMRAwDgYDVQQKDAdSZWNyYWZ0MQswCQYDVQQGEwJVUzAeFw0yNjA2MTIxOTQzNTBaFw0yNzA2MTIxOTQzNTBaMDcxCzAJBgNVBAYTAlVTMRMwEQYDVQQKEwpSZWNyYWZ0IEFJMRMwEQYDVQQDEwpyZWNyYWZ0LmFpMFkwEwYHKoZIzj0CAQYIKoZIzj0DAQcDQgAESmk1WwArIPw3hty3jsWHSA/1QOhBRu9xOjpJ2/iiIghScoEVM+Lnjds/7dqmG+giFL0vEb4DoogpX6KrGLcPNaN1MHMwDAYDVR0TAQH/BAIwADAOBgNVHQ8BAf8EBAMCBsAwEwYDVR0lBAwwCgYIKwYBBQUHAwQwHQYDVR0OBBYEFC8x6QXp/eki9cuCDx2vDJDLIV39MB8GA1UdIwQYMBaAFAILKjgayqqXSv/5v5MWaO2UeHm3MAoGCCqGSM49BAMCA0gAMEUCIFPISltGl775PEkIFRTZGsevWJvWnvBrE9kWU0MPgedQAiEAtA+AZBKEQ+DdK9mUZDctB2Wlt1iAsv0GRjfeYpReMsxZAb0wggG5MIIBX6ADAgECAgkAnPloO0+gE28wCgYIKoZIzj0EAwIwQDEfMB0GA1UEAwwWUmVjcmFmdCBTdGFnaW5nIERldiBDQTEQMA4GA1UECgwHUmVjcmFmdDELMAkGA1UEBhMCVVMwHhcNMjYwNjEyMTk0MDE2WhcNMjgwNjExMTk0MDE2WjBAMR8wHQYDVQQDDBZSZWNyYWZ0IFN0YWdpbmcgRGV2IENBMRAwDgYDVQQKDAdSZWNyYWZ0MQswCQYDVQQGEwJVUzBZMBMGByqGSM49AgEGCCqGSM49AwEHA0IABEPSEAZXFWymij2K0EnzoS/9NLO8VAwu0YpyLizvyNZPfcvcoeqFhfZD8Wj/rcdb9T3ji98q1arie99B9GRog8qjQjBAMA8GA1UdEwEB/wQFMAMBAf8wDgYDVR0PAQH/BAQDAgGGMB0GA1UdDgQWBBQCCyo4Gsqql0r/+b+TFmjtlHh5tzAKBggqhkjOPQQDAgNIADBFAiBUMDSJi5WA3kIY4BfmYqk24HLs0qpjicN0NpUP4bvNxQIhAPTvHC5v8X6FS6geI7XW7h84t1i/qdkTfg0RpMKWLMFboWNwYWRZA6QAAAAAAAAAAAAAAAAAAAAAAAAAAAAAAAAAAAAAAAAAAAAAAAAAAAAAAAAAAAAAAAAAAAAAAAAAAAAAAAAAAAAAAAAAAAAAAAAAAAAAAAAAAAAAAAAAAAAAAAAAAAAAAAAAAAAAAAAAAAAAAAAAAAAAAAAAAAAAAAAAAAAAAAAAAAAAAAAAAAAAAAAAAAAAAAAAAAAAAAAAAAAAAAAAAAAAAAAAAAAAAAAAAAAAAAAAAAAAAAAAAAAAAAAAAAAAAAAAAAAAAAAAAAAAAAAAAAAAAAAAAAAAAAAAAAAAAAAAAAAAAAAAAAAAAAAAAAAAAAAAAAAAAAAAAAAAAAAAAAAAAAAAAAAAAAAAAAAAAAAAAAAAAAAAAAAAAAAAAAAAAAAAAAAAAAAAAAAAAAAAAAAAAAAAAAAAAAAAAAAAAAAAAAAAAAAAAAAAAAAAAAAAAAAAAAAAAAAAAAAAAAAAAAAAAAAAAAAAAAAAAAAAAAAAAAAAAAAAAAAAAAAAAAAAAAAAAAAAAAAAAAAAAAAAAAAAAAAAAAAAAAAAAAAAAAAAAAAAAAAAAAAAAAAAAAAAAAAAAAAAAAAAAAAAAAAAAAAAAAAAAAAAAAAAAAAAAAAAAAAAAAAAAAAAAAAAAAAAAAAAAAAAAAAAAAAAAAAAAAAAAAAAAAAAAAAAAAAAAAAAAAAAAAAAAAAAAAAAAAAAAAAAAAAAAAAAAAAAAAAAAAAAAAAAAAAAAAAAAAAAAAAAAAAAAAAAAAAAAAAAAAAAAAAAAAAAAAAAAAAAAAAAAAAAAAAAAAAAAAAAAAAAAAAAAAAAAAAAAAAAAAAAAAAAAAAAAAAAAAAAAAAAAAAAAAAAAAAAAAAAAAAAAAAAAAAAAAAAAAAAAAAAAAAAAAAAAAAAAAAAAAAAAAAAAAAAAAAAAAAAAAAAAAAAAAAAAAAAAAAAAAAAAAAAAAAAAAAAAAAAAAAAAAAAAAAAAAAAAAAAAAAAAAAAAAAAAAAAAAAAAAAAAAAAAAAAAAAAAAAAAAAAAAAAAAAAAAAAAAAAAAAAAAAAAAAAAAAAAAAAAAAAAAAAAAAAAAAAAAAAAAAAAAAAAAAAAAAAAAAAAAAAAAAAAAAAAAAAAAAAAAAAAAAAAAAAAAAAAAAAAAAAAAAAAAAAAAAAAAAAAAAAAAAAAAAAAAAAAAAAAAAAAAAAAAAAAAAAAAAAAAAAAAAAAAAAAAAAAAAAAAAAAAAAAAAAAAAAAAAAAPZYQExa0AsGIRZxsMQ8gnA4H9J9Mj7wZC7kFDXQxr92RkebebpTtQP0KZeTDTDqV9llVDu+plmn/qrgqECmVJnkDhE=</c2pa:manifest></metadata><path fill="#F97316" d="M373.41 148.701C386.082 147.338 401.68 149.964 413.491 154.576C438.093 164.185 461.688 189.545 467.726 215.479C493.24 215.848 519.57 215.5 545.145 215.474C548.292 207.943 551.047 201.145 555.436 194.202C594.184 132.904 683.759 132.788 719.425 197.131C722.533 202.737 725.695 209.225 727.142 215.46C768.729 216.784 797.749 210.3 833.695 240.192C855.207 258.056 870.286 286.479 872.667 314.361C873.683 326.262 873.801 345.669 865.33 355.204C861.011 360.012 854.948 362.893 848.493 363.205C842.233 363.472 836.2 360.772 831.622 356.547C819.253 345.131 826.759 333.452 825.652 320.007C824.373 304.479 817.754 288.935 805.821 278.815C789.139 264.666 772.988 262.385 752.004 262.865C744.347 263.04 737.152 262.842 729.371 263.343C726.513 272.416 723.37 280.509 718.288 288.626C703.915 311.263 681.151 327.277 654.988 333.156C645.496 335.274 633.456 336.722 624.962 331.072C619.644 327.472 616.009 321.875 614.882 315.554C613.808 309.231 615.294 302.741 619.013 297.516C626.454 287.252 636.12 288.691 646.855 286.529C660.741 283.731 672.008 274.997 680.012 263.495C671.497 262.848 661.093 263.021 652.447 262.985L604.56 262.975L470.263 263.301C468.466 268.153 466.795 272.554 464.556 277.255C453.058 301.972 432.005 320.953 406.232 329.836C389.459 335.656 361.599 341.113 354.559 318.43C352.747 312.424 353.428 305.942 356.447 300.443C368.546 278.832 401.057 297.022 419.659 262.906C379.581 263.422 338.979 263.084 298.847 263.091L264.444 263.146C236.867 263.378 216.611 265.052 199.743 290.764C183.458 315.587 192.324 333.412 198.62 359.923C226.759 360.249 255.484 359.917 283.676 359.921L461.25 359.894L534.166 359.857C547.235 359.829 560.619 359.476 573.654 360.209C578.418 360.477 582.229 362.65 585.705 365.938C590.396 370.402 593.09 376.569 593.176 383.044C593.276 390.028 590.318 397.289 584.97 401.869C576.888 408.791 565.715 407.368 555.882 407.411C550.075 407.437 544.239 407.309 538.425 407.3L470.592 407.316L236.75 407.488C228.297 407.455 219.845 407.486 211.393 407.584C218.292 438.579 225.904 468.103 233.367 498.913L264.782 627.339C268.634 642.215 272.266 657.148 275.678 672.131C280.851 694.673 282.397 711.925 302.051 727.376C310.763 734.158 321.215 738.335 332.201 739.426C339.346 740.176 349.985 739.85 357.321 739.809L398.878 739.629L557.166 739.813L708.144 739.841L751.776 739.794C760.463 739.782 769.415 740.072 778.057 739.165C811.892 735.619 831.433 703.622 826.146 671.353C824.074 658.706 818.42 648.869 827.937 637.373C832.046 632.368 838.008 629.244 844.461 628.713C850.641 628.159 856.777 630.167 861.434 634.265C871.086 642.764 873.749 665.412 874.326 677.736C875.976 712.999 865.007 733.781 842.221 758.89C843.588 765.172 844.367 771.567 844.547 777.994C845.309 804.654 836.283 828.801 818.038 848.263C800.366 867.114 771.034 880.33 745.222 880.532C732.22 880.634 718.754 880.549 705.661 880.532L634.549 880.529L400.97 880.504L292.521 880.516C248.959 880.52 210.276 885.472 176.35 851.673C154.735 830.14 143.337 806 143.329 775.141C143.322 746.989 143.574 718.896 143.505 690.801L143.468 453.727L143.475 358.777C143.452 344.715 142.503 317.454 144.677 304.578C148.304 283.016 158.446 263.081 173.739 247.455C190.507 229.988 212.863 218.948 236.924 216.25C250.043 214.881 274.945 215.6 289.187 215.466C301.666 177.137 333.382 152.336 373.41 148.701ZM598.17 215.402C612.363 215.851 627.38 215.679 641.625 215.656C652.185 215.662 666.297 216.088 676.522 215.455C668.365 201.573 649.896 196.287 634.703 196.228C620.018 197.064 606.301 202.507 598.17 215.402ZM191.92 526.273C191.834 525.943 191.765 525.485 191.358 525.418C190.633 526.214 191.003 553.488 191.43 556.528L190.615 713.148L190.527 752.632C190.511 762.941 190.06 773.774 191.739 783.89C193.457 793.828 197.733 803.147 204.147 810.93C225.097 836.136 248.797 833.351 278.276 833.189L325.167 833.137L503.008 833.379L665.969 833.353L718.204 833.298C739.645 833.259 762.286 835.705 779.536 820.528C791.329 810.152 795.45 799.184 796.647 783.789C777.501 788.097 765.706 787.473 746.234 787.439L708.33 787.369L581.65 787.444L422.4 787.462C402.984 787.516 383.567 787.47 364.151 787.323C352.558 787.24 339.4 787.446 327.994 786.411C314.165 785.087 300.737 781.021 288.496 774.45C269.057 763.983 252.798 746.703 242.821 727.071C233.815 709.349 230.634 687.095 225.926 667.484L204.469 578.716C200.729 562.885 196.45 541.355 191.92 526.273ZM341.07 215.454C351.922 216.452 370.957 215.804 382.375 215.717C390.98 215.736 408.409 216.28 416.109 215.455L416.753 215.39C411.378 206.685 400.771 199.882 390.811 197.521C385.899 196.395 380.856 195.954 375.823 196.209C363.663 197.269 351.928 202.217 343.996 211.738C342.998 212.959 342.023 214.198 341.07 215.454Z"/><path fill="#F5B9B0" fill-opacity="0.22352941" d="M191.43 556.528C191.003 553.488 190.633 526.214 191.358 525.418C191.765 525.485 191.834 525.943 191.92 526.273C190.259 534.752 192.223 547.256 191.43 556.528Z"/><path fill="#F97316" d="M714.461 349.292C794.656 343.586 864.303 403.946 870.055 484.137C875.806 564.329 815.486 634.01 735.298 639.807C655.046 645.609 585.296 585.23 579.539 504.974C573.783 424.718 634.202 355.003 714.461 349.292ZM731.224 593.161C785.544 589.391 826.526 542.306 822.769 487.985C819.012 433.665 771.937 392.671 717.616 396.415C663.276 400.161 622.265 447.255 626.024 501.594C629.782 555.933 676.886 596.932 731.224 593.161Z"/><path fill="#F97316" d="M720.897 419.582C728.971 418.775 735.772 420.152 741.634 426.227C744.419 429.122 746.365 432.72 747.264 436.636C748.461 441.766 748.099 451.36 748.08 456.948L748.037 485.303C756.486 493.74 776.684 509.662 779.913 519.841C781.76 525.66 781.172 533.527 778.228 538.96C774.892 545.117 768.989 548.18 762.491 549.95C758.476 550.263 750.697 550.233 747.519 547.852C739.831 542.092 703.832 511.827 702.976 504.058C700.764 483.981 702.115 459.316 702.321 438.82C702.421 428.903 712.095 421.839 720.897 419.582Z"/></svg>