<?xml version="1.0" encoding="UTF-8"?>
<svg xmlns="http://www.w3.org/2000/svg"
 width="900"
 height="560"
 viewBox="0 0 900 560">

<rect width="900" height="560" fill="#37863d"/>

<rect
 x="35"
 y="35"
 width="830"
 height="490"
 rx="18"
 fill="none"
 stroke="#fff"
 stroke-width="5"/>

<defs>
 <marker
  id="moveArrow"
  markerWidth="10"
  markerHeight="10"
  refX="8"
  refY="3"
  orient="auto">
  <path d="M0,0 L0,6 L9,3 z"
   fill="#123d83"/>
 </marker>

 <marker
  id="ballArrow"
  markerWidth="10"
  markerHeight="10"
  refX="8"
  refY="3"
  orient="auto">
  <path d="M0,0 L0,6 L9,3 z"
   fill="#fff"/>
 </marker>
</defs>


    
<path d="M225,381
 L213,409
 L237,409 Z"
 fill="#f59e0b"/>
    
<path d="M450,116
 L438,144
 L462,144 Z"
 fill="#f59e0b"/>
    
<path d="M675,381
 L663,409
 L687,409 Z"
 fill="#f59e0b"/>

    
<circle cx="225" cy="350" r="22"
 fill="#123d83" stroke="#fff" stroke-width="4"/>
<text x="225" y="356"
 text-anchor="middle"
 font-family="Arial,sans-serif"
 font-size="17"
 font-weight="700"
 fill="#fff">A</text>
    
<circle cx="450" cy="180" r="22"
 fill="#123d83" stroke="#fff" stroke-width="4"/>
<text x="450" y="186"
 text-anchor="middle"
 font-family="Arial,sans-serif"
 font-size="17"
 font-weight="700"
 fill="#fff">B</text>
    
<circle cx="675" cy="350" r="22"
 fill="#123d83" stroke="#fff" stroke-width="4"/>
<text x="675" y="356"
 text-anchor="middle"
 font-family="Arial,sans-serif"
 font-size="17"
 font-weight="700"
 fill="#fff">C</text>

    
<line
 x1="250" y1="330"
 x2="425" y2="200"
 stroke="#fff"
 stroke-width="5"
 stroke-dasharray="11 8"
 marker-end="url(#ballArrow)"/>
    
<line
 x1="475" y1="200"
 x2="650" y2="330"
 stroke="#fff"
 stroke-width="5"
 stroke-dasharray="11 8"
 marker-end="url(#ballArrow)"/>
    
<line
 x1="650" y1="370"
 x2="250" y2="370"
 stroke="#fff"
 stroke-width="5"
 stroke-dasharray="11 8"
 marker-end="url(#ballArrow)"/>

    
<path
 d="M225,320
 Q315,180
 405,215"
 fill="none"
 stroke="#123d83"
 stroke-width="6"
 marker-end="url(#moveArrow)"/>
    
<path
 d="M480,215
 Q557.5,180
 635,325"
 fill="none"
 stroke="#123d83"
 stroke-width="6"
 marker-end="url(#moveArrow)"/>
    
<path
 d="M640,390
 Q465,355
 290,390"
 fill="none"
 stroke="#123d83"
 stroke-width="6"
 marker-end="url(#moveArrow)"/>
  

<image
 href="/favicon-spraoi-v6.png"
 x="824"
 y="484"
 width="42"
 height="42"
 preserveAspectRatio="xMidYMid meet"/>
</svg>